<?xml version="1.0" encoding="utf-8"?>
<!-- Svg Vector Icons : http://www.onlinewebfonts.com/icon -->
<!DOCTYPE svg PUBLIC "-//W3C//DTD SVG 1.1//EN" "http://www.w3.org/Graphics/SVG/1.1/DTD/svg11.dtd">
<svg version="1.1" xmlns="http://www.w3.org/2000/svg" xmlns:xlink="http://www.w3.org/1999/xlink" x="0px" y="0px" viewBox="0 0 1000 1000" enable-background="new 0 0 1000 1000" xml:space="preserve">
<metadata> Svg Vector Icons : http://www.onlinewebfonts.com/icon </metadata>
<g><path d="M960.6,451H794V284.4c0-29.4-19.6-29.4-49-29.4s-49,0-49,29.4V451H529.4c-29.4,0-29.4,19.6-29.4,49c0,29.4,0,49,29.4,49H696v166.6c0,29.4,19.6,29.4,49,29.4s49,0,49-29.4V549h166.6c29.4,0,29.4-19.6,29.4-49C990,470.6,990,451,960.6,451z M372.6,451H39.4C10,451,10,470.6,10,500c0,29.4,0,49,29.4,49h333.2c29.4,0,29.4-19.6,29.4-49C402,470.6,402,451,372.6,451z M372.6,696H39.4C10,696,10,715.6,10,745s0,49,29.4,49h333.2c29.4,0,29.4-19.6,29.4-49S402,696,372.6,696z M372.6,206H39.4C10,206,10,225.6,10,255s0,49,29.4,49h333.2c29.4,0,29.4-19.6,29.4-49S402,206,372.6,206z"/></g>
</svg>