<svg xmlns="http://www.w3.org/2000/svg" viewBox="0 0 368.16 284.43"><defs><style>.a{fill:#356cb4;}</style></defs><title>stream</title><path class="a" d="M255,244.87c-1.68.21-2.48.78-3.09,2.77-2.63,8.63-5.71,17.13-8.73,25.64a9.11,9.11,0,0,0-.81,3.58c-.67,1.81-1.45,3.6-2,5.45-.38,1.37-1,2.16-2.48,2.09l-12.1,0h-6.66c-3.33-.05-6.67-.17-10-.14-1.72,0-2.46-.52-3-2.34-1.67-5.5-3.72-10.89-5.63-16.32q-1.63-5.24-3.28-10.46c-.26-1.2-.23-2.57-.84-3.56-1.38-2.25-.65-5.86-4.23-6.71-7.24-2.79-14.15-6.42-21.74-8.28A52.13,52.13,0,0,0,159.78,243l-1.36.35A83.66,83.66,0,0,0,145.75,250l-7.54,3.83-2.3,1.09c-1.42.6-2.39,0-3.2-1.14a78.85,78.85,0,0,0-8.77-8.76l-.61-.48-.73-.65-2.32-1.49c-1.74-4.08-5.28-6.54-8.39-9.38l-.13-.21-.08-.83,7.11-11.15h-.05l1.51-1.49a6.61,6.61,0,0,0,3.66-1.25,90.13,90.13,0,0,0,24.12-13c3.19-1.93,6.41-3.82,8.9-6.69l1.6-1.48c4.15-2.73,7.42-6.44,11-9.84l.77-1a25.29,25.29,0,0,1,11.4-3.59,26.82,26.82,0,0,1,6.14,4c5.07,4.14,10.46,7.79,17,9.39,1.76,1.54,4,1.76,6.16,2.21l2.11.11c7.26,2.35,14.52,2,21.78,0,5.33-.35,10.17-2.34,14.94-4.52a41.47,41.47,0,0,0,10.94-6.85c7.67-6.22,14-13.48,17.45-23,1-3.28,2.81-6.27,3.15-9.75,1-1.65.8-3.56,1.21-5.34.23-5.48.84-11-.48-16.39.16-4.65-1.64-8.72-3.79-12.68L278,119l-.48-.94c-.62-1.35-1.25-2.69-1.87-4-5.95-13.11-18.58-19.34-28.86-28-2.9-2.51-5.71-5.18-9.65-6a64.61,64.61,0,0,0-21.94-10.91,57.08,57.08,0,0,0-11.82-3.33l0,.11c-.54-.92-1.43-.6-2.23-.63a18.48,18.48,0,0,0-6.84-1.42c-3.31-.43-6.61-1-9.92-1.27a88.87,88.87,0,0,0-26.82,1.77c-1.25,1-2.69.9-4.17.83-2.17-.11-4.37-.24-6.22,1.26a70.47,70.47,0,0,0-12.68,4.16c-3.14,1.15-6.34,2.17-9,4.29a3.34,3.34,0,0,0-2.21.94,2.3,2.3,0,0,1-3.19-.91c-1.39-2.57-2.91-5.08-4.13-7.72-2.28-4.91-5.87-9.2-7-14.65,2-.5,2.72-2.32,3.77-3.78l9.35-9.33c.37-.4.75-.79,1.13-1.19.79-.55,1.85-.93,2.33-1.68,2.7-4.19,6.14-6.2,11.14-4.22l-.07,0c0,1.59,1.43,1.23,2.29,1.63,3.2.16,5,3.33,8.17,3.67,5.73,2.55,11.51,5,17.17,7.69,2.19,1.05,4.09,2.7,6.74,1.68,4.09-1.3,7.66-3.74,11.67-5.29,3.38-1.32,7.22-2.35,9.53-5.66,1.45-1.2,1.54-3,2.17-4.63a63.81,63.81,0,0,0,5.36-14.06,42.92,42.92,0,0,0,3.73-9,1.27,1.27,0,0,0,.5-1.52c1.11-2.16,1.56-4.62,3.1-6.58,3.47-.07,7-.29,10.42-.18,6.51.2,13-.54,19.56.64,2.31.42,3.42,1,4.06,3.21a57.17,57.17,0,0,0,2.7,6.45l7.65,20.35c1.38,4.33,2.06,9.24,8.07,9.75h0l.73.5.85.28,9.66,4.32c3.72,2.14,7.44,3,11.16,0,2.59-1.36,5.6-2,7.65-4.33a6.59,6.59,0,0,0,3.69-1.55A87.63,87.63,0,0,0,306.13,33a16.8,16.8,0,0,0,5.38-3L315,29l1.26,1.06A102.08,102.08,0,0,0,326,39.79L328.29,42a49.94,49.94,0,0,0,8.25,8.19c.55,1.34-.23,2.39-.76,3.5q-2.53,5.37-5,10.74a61.53,61.53,0,0,0-4.67,9.63c-2.75,3.87-4.38,8.26-5.92,12.7a3,3,0,0,0-.57,3.68c3.06,6.43,5.26,13.25,8.77,19.49,2.91,3.43,6.79,4.59,11.11,4.73h0c.17.49.1,1.14.87,1.18,3.25-.35,5.88,1.78,8.93,2.23,4.61,2.85,10.41,2,15.09,5.17,2.19,1.47,4.2,2,3.63,5.14a11.1,11.1,0,0,0,.14,2.56v22.43c.23,2.47-.73,3.93-3.29,4.46a37.75,37.75,0,0,0-4.92,1.71c-6.83,2.25-13.73,4.32-20.3,7.33-3.28,1.05-6.56,2.08-9.83,3.17a4.08,4.08,0,0,0-2.63,2.35c-2.22,5.16-4.58,10.27-6.89,15.4-2.38,4.29-1.89,8.28,1.3,12q4.94,10.11,9.89,20.22a23.59,23.59,0,0,0,2.7,6.29c.89,1.4,2.4,3,1.26,5l-21.16,21c-3.92.43-6.63-2.34-9.88-3.69l-11.18-4.84a5.57,5.57,0,0,0-3.06-1.35l-8.1-3.6c-1.28-.36-2.82-.22-3.74-1.34-1.69-2.06-3.5-1.89-5.58-.7a31.22,31.22,0,0,1-3.41,1.46Z"/><path class="a" d="M131.94,86.52c2.19-.28,3.71-2,5.73-2.67,3.23-.7,6.48-1.35,9.11-3.56.37-.11,1,.09.82-.67v.09a37.08,37.08,0,0,0,11.2-2.4c.74,0,1.66.35,2.19,0,2.45-1.51,5.58,1.67,7.76-1.2a87.69,87.69,0,0,1,25.67,1.29c3.8.74,7.44,2.35,11.37,2.69,3.31,1.29,6.32,3.32,9.91,3.88l4.7,2.29a16.44,16.44,0,0,0,5.73,3l11.25,7.56,0,0,11.23,10.35,2.27,1.66c1.2,3.17.88,6.48.82,9.76-1.57,1.64-2.51,3.82-4.47,5.12-3.85.85-6.63-1.14-9.24-3.52-3.23-4.53-7.43-8-11.81-11.39-3.57-3.07-7.27-5.93-11.87-7.35A90.52,90.52,0,0,0,204,96.12c-3.72-1.79-7.75-3.61-12.2-3a21.65,21.65,0,0,0-10.53-1.44c-4.58-1.62-9-.25-13.5.58a29.06,29.06,0,0,0-8.25,1c-4.13.69-8.22,1.52-11.93,3.61l-.75.16a21.65,21.65,0,0,0-7.43,3.12c-10,4.5-18.37,11.26-26.07,19-5.9,5.94-11.62,12.31-20.44,14.12a2.85,2.85,0,0,0-2.29,1.69c-3.27.52-6.61.63-9.78,1.72l-11.11-.21c-4.12-.8-8.3-1.39-12-3.56l-3.62-1.81-7.48-5.11c-2.26-2.8-6-4.28-7.09-8.11-1.51-3.4.34-6.15,1.71-9,1.65-.88,2.9-2.63,5.09-2.33l5.46,2.85c2.33,1.38,3.16,4.86,6.59,4.71,2,4.05,6.37,4.63,9.86,6.5,4,.18,7.92,1.62,11.9.11,4.22-.47,8.32-1.33,12-3.69a61.19,61.19,0,0,0,9.69-8.35,1.25,1.25,0,0,0,1.53-1.4,119.92,119.92,0,0,1,21.1-16.52l.72-.54.08-.05Z"/><path class="a" d="M146.84,180.58l-7.66,6.73a1.35,1.35,0,0,0-1.38.92c-.66.59-2,.66-1.58,2.09v-.09c-1.74-.41-2.63,1.08-3.75,1.84-6.34,4.33-13.26,7.58-20.12,11-2.87,2.29-6.87,1-9.81,3.14-2.48-.71-4.5.77-6.71,1.37-6.41,1.75-13,1.55-19.51,1.48l-20.1-2.08c-3.13-1.14-6.21-2.49-9.67-2.26-3.74-1.64-7-4.54-11.33-4.68-.92-1.87-2.95-2-4.51-2.9a136.71,136.71,0,0,1-15.62-10.62A2.92,2.92,0,0,0,13,184.84c-1.33-1.28-2.63-2.6-4-3.83-5-4.53-9.73-9.22-8.84-16.85l2.17-2.93a8.33,8.33,0,0,1,6.13.15c1.7.64,2.09,2.81,4,3.09l.71.81A56.68,56.68,0,0,0,24,175a1.32,1.32,0,0,0,1.39,1.14,39.35,39.35,0,0,0,9.84,6.32c2.38,2.18,5.58,2.71,8.32,4.19,6.29,3.64,13.28,5,20.34,5.89a112.13,112.13,0,0,0,27.52-.09c8.19-1.54,16.09-3.9,23.37-8.05,7.48-3.18,13.76-8.11,19.53-13.68,7.83-7.56,15.14-15.76,25.92-19.37,3.5-.9,7.29-.28,10.64-2l8.91-.09c1.24.79,2.43,1.67,4.07,1.44,3-.44,5.88.48,8.74,1.27a58.1,58.1,0,0,1,19.61,11,8.68,8.68,0,0,1,1.61,11.64c-2.36,3.58-5.21,4-10.06,1.5l-.76-.72c-3.55-2.92-6.28-7-11.14-8.13-5.13-3.61-10.93-4.36-17-3.89-1.07.08-2.33-.18-2.61,1.38-.7-.28-1.35-.81-2.18-.45A20.59,20.59,0,0,0,159.44,170c-3.38.32-4.61,3.47-6.89,5.24Z"/><path class="a" d="M45.72,164.08,35.34,158l-6.77-5.26L24,148.48a22.78,22.78,0,0,1-4.52-6.06c0-1.7,0-3.41,0-5.11,4.28-6.44,8.18-6.77,13.85-1.2.52.51.93,1.2,1.8,1.2l0-.07a3.11,3.11,0,0,0,2.29,2.28l0,0A2,2,0,0,0,38.94,141l0,0A25.88,25.88,0,0,0,48,147.64,29,29,0,0,0,57,152a36.79,36.79,0,0,0,15,3.26c1.64,1.24,3.55,1.28,5.52,1.49,3.63.39,6.67-2,10.21-1.82,2.13,1.08,3.28-1.39,5.11-1.4,3.68-1.05,7.41-2,10.59-4.26a50.64,50.64,0,0,0,16-11.34,94.09,94.09,0,0,1,29.67-20.81l9.86-2.94c10.95-2.18,21.88-3,32.76.35l10.59,3,7.46,3.28,5.07,3.06a86.69,86.69,0,0,1,13.86,11.79,11.49,11.49,0,0,1,3.62,8.27c-.87,3.44-2.62,6.14-6.15,7.36-2.71.74-4.33-1.13-6.19-2.51s-2.51-3.73-5-4.17v.09c.33-1.53-1.06-1.86-1.86-2.44-3.12-2.27-6.32-4.39-9.5-6.57a39.36,39.36,0,0,0-20.9-6.7c-5.16-2-10.43-.71-15.66-.58-6.9,1.08-13.62,2.7-19.58,6.57-9.43,3.75-15.54,11.37-21.83,18.76-.1.12,0,.46.08.69l.07-.07c-1.14-.49-1.83.34-2.6.89l-9.43,6.61c-1.54.67-3.28.93-4.44,2.31l-8.18,3.16c-3.15,1.28-6.73,1.15-9.75,2.87l-11.28.91-11.25-.16L57.7,168.58c-3.7-1.31-7.18-3.33-11.19-3.7Z"/></svg>